<?xml version="1.0" encoding="UTF-8"?>
<svg width="910px" height="750px" viewBox="0 0 910 750" version="1.1" xmlns="http://www.w3.org/2000/svg" xmlns:xlink="http://www.w3.org/1999/xlink">
    <!-- Generator: Sketch 52.4 (67378) - http://www.bohemiancoding.com/sketch -->
    <title>Untitled</title>
    <desc>Created with Sketch.</desc>
    <defs>
        <linearGradient x1="50.0036425%" y1="100%" x2="50.0036425%" y2="0%" id="linearGradient-1">
            <stop stop-color="#808080" stop-opacity="0.25" offset="0%"></stop>
            <stop stop-color="#808080" stop-opacity="0.12" offset="54%"></stop>
            <stop stop-color="#808080" stop-opacity="0.1" offset="100%"></stop>
        </linearGradient>
        <linearGradient x1="50.0057824%" y1="99.9972097%" x2="50.0057824%" y2="0.00563851898%" id="linearGradient-2">
            <stop stop-color="#808080" stop-opacity="0.25" offset="0%"></stop>
            <stop stop-color="#808080" stop-opacity="0.12" offset="54%"></stop>
            <stop stop-color="#808080" stop-opacity="0.1" offset="100%"></stop>
        </linearGradient>
        <linearGradient x1="-0.0160778747%" y1="49.9868232%" x2="100.035243%" y2="49.9868232%" id="linearGradient-3">
            <stop stop-color="#808080" stop-opacity="0.25" offset="0%"></stop>
            <stop stop-color="#808080" stop-opacity="0.12" offset="54%"></stop>
            <stop stop-color="#808080" stop-opacity="0.1" offset="100%"></stop>
        </linearGradient>
        <linearGradient x1="50%" y1="100%" x2="50%" y2="1.89478063e-12%" id="linearGradient-4">
            <stop stop-color="#808080" stop-opacity="0.25" offset="0%"></stop>
            <stop stop-color="#808080" stop-opacity="0.12" offset="54%"></stop>
            <stop stop-color="#808080" stop-opacity="0.1" offset="100%"></stop>
        </linearGradient>
    </defs>
    <g id="Page-1" stroke="none" stroke-width="1" fill="none" fill-rule="evenodd">
        <g id="hello">
            <g id="Group" opacity="0.7" transform="translate(785.000000, 274.000000)" fill="url(#linearGradient-1)" fill-rule="nonzero">
                <path d="M54.83,11.81 L54.83,0.91 L0.36,0.91 L0.36,51.3 C0.36,57.165264 5.11473596,61.92 10.98,61.92 L44.21,61.92 C50.075264,61.92 54.83,57.165264 54.83,51.3 L54.83,40.11 C62.6531135,40.11 68.995,33.7681135 68.995,25.945 C68.995,18.1218865 62.6531135,11.78 54.83,11.78 L54.83,11.81 Z M54.83,34.69 L54.83,17.25 C58.0139727,17.1421307 61.0033544,18.7792046 62.6272971,21.5200308 C64.2512398,24.260857 64.2512398,27.669143 62.6272971,30.4099692 C61.0033544,33.1507954 58.0139727,34.7878693 54.83,34.68 L54.83,34.69 Z" id="Shape"></path>
            </g>
            <path d="M838.12,287.51 C830.978958,287.51 825.19,293.298958 825.19,300.44 C825.19,307.581042 830.978958,313.37 838.12,313.37 C845.261042,313.37 851.05,307.581042 851.05,300.44 C851.05,293.298958 845.261042,287.51 838.12,287.51 Z M838.12,308.4 C833.701722,308.4 830.12,304.818278 830.12,300.4 C830.12,295.981722 833.701722,292.4 838.12,292.4 C842.538278,292.4 846.12,295.981722 846.12,300.4 C846.12,304.818278 842.538278,308.4 838.12,308.4 Z" id="Shape" fill="#156553" fill-rule="nonzero"></path>
            <path d="M838.12,287.51 C830.978958,287.51 825.19,293.298958 825.19,300.44 C825.19,307.581042 830.978958,313.37 838.12,313.37 C845.261042,313.37 851.05,307.581042 851.05,300.44 C851.05,293.298958 845.261042,287.51 838.12,287.51 Z M838.12,308.4 C833.701722,308.4 830.12,304.818278 830.12,300.4 C830.12,295.981722 833.701722,292.4 838.12,292.4 C842.538278,292.4 846.12,295.981722 846.12,300.4 C846.12,304.818278 842.538278,308.4 838.12,308.4 Z" id="Shape" fill="#000000" fill-rule="nonzero" opacity="0.1"></path>
            <path d="M788.34,277.56 L838.08,277.56 L838.08,323.56 C838.08,328.944776 833.714776,333.31 828.33,333.31 L798.09,333.31 C792.705224,333.31 788.34,328.944776 788.34,323.56 L788.34,277.56 Z" id="Path" fill="#156553"></path>
            <path d="M829.12,277.56 L829.12,323.56 C829.12,326.1326 828.098039,328.599833 826.278936,330.418936 C824.459833,332.238039 821.9926,333.26 819.42,333.26 L824.42,333.26 C829.777162,333.26 834.12,328.917162 834.12,323.56 L834.12,277.56 L829.12,277.56 Z" id="Path" fill="#000000" opacity="0.1"></path>
            <path d="M798.12,240.48 C797.256442,240.506978 796.449883,240.91759 795.92,241.6 C795.27,242.78 796.45,244.12 797.53,244.93 C799.53,246.43 801.62,247.93 802.98,250 C804.34,252.07 804.76,255 803.28,257 C801.35,259.62 796.73,260.19 796.28,263.41 C795.99,265.48 797.78,267.25 799.6,268.29 C804.08,270.86 809.86,271.54 813.1,275.56 C814.44,272.8 817.45,271.2 820.44,270.56 C823.43,269.92 826.54,269.93 829.58,269.47 C830.596099,269.451478 831.541282,268.945396 832.12,268.11 C832.97,266.39 830.55,264.32 831.39,262.6 C832.03,261.28 833.89,261.39 835.25,260.86 C837.47,260 838.38,257.15 837.75,254.86 C837.12,252.57 835.34,250.77 833.47,249.3 C828.47,245.3 822.37,243.01 816.24,241.3 C813.39,240.52 810.04,239.3 807.08,239.18 C804.12,239.06 800.98,240 798.12,240.48 Z" id="Path" fill="#EEEEEE"></path>
            <path d="M449.06,345.02 L345.06,669.02" id="Path" stroke="#E0E0E0" stroke-width="8"></path>
            <g id="Group" opacity="0.7" transform="translate(197.000000, 0.000000)" fill="url(#linearGradient-2)" fill-rule="nonzero">
                <path d="M332.64,705.51 C319.85,706.25 308.45,716.97 308.45,716.97 L302.94,703.3 L302.49,703.45 C305.18,691.67 359.96,448.73 305.12,427.79 C262.99,411.7 218.3,391.79 183.28,392.53 L183.28,335.11 L232.37,335.11 L232.37,333.11 L271.23,333.11 C278.68,327.79 267.85,324.11 255.76,321.84 C256.254275,321.275667 256.689851,320.66251 257.06,320.01 L319.3,208.34 C319.3,208.34 333.62,184.82 324.41,173.57 C315.2,162.32 301.91,202.21 301.91,202.21 L250.78,275.84 C250.78,275.84 199.12,222.03 166.34,195.28 C162.697287,191.668443 158.587446,188.560838 154.12,186.04 C148.12,181.99 143.59,179.88 141.35,180.71 L141.29,180.71 C136.313682,179.331209 131.173797,178.631538 126.01,178.63 L121.92,178.63 L121.92,170.24 C140.473933,164.113653 155.331907,150.03652 162.45,131.84 C174.139378,112.47906 176.292271,88.8230423 168.29,67.67 C168.899889,67.5963569 169.486635,67.3916779 170.01,67.07 C171.86,65.88 172.01,63.27 171.87,61.07 C170.506284,46.1114083 161.857234,32.7861848 148.75,25.45 C143.57,22.62 137.63,20.66 133.81,16.16 C130.53,12.29 129.15,6.88 125.17,3.72 C120.45,-0.03 113.63,0.61 107.84,2.29 C101.394012,4.15599373 95.2871891,7.03892719 89.75,10.83 C83.49,15.12 77.83,20.63 70.62,23.01 C65.5,24.7 59.94,24.66 54.78,26.25 C46.7537182,28.7906577 40.4039615,34.9809287 37.66,42.94 C36.3547194,47.1418269 35.8592754,51.5533141 36.2,55.94 C33.0625243,61.181581 30.5933386,66.795199 28.85,72.65 L27.69,73.28 L28.81,72.78 C20.8293784,99.716969 28.8753346,128.847675 49.55,147.87 C57.5580447,158.295302 68.515718,166.071941 81,170.19 L81,180.34 C72.0930279,182.261138 63.5956787,185.741327 55.9,190.62 C55.9,190.62 55.25,191.02 54.13,191.78 L53.79,192.01 C46.22,197.15 20.86,215.91 21.72,236.19 C21.72,236.97 21.72,237.753333 21.72,238.54 C20.3356046,244.399364 19.6342683,250.399313 19.63,256.42 L19.63,403.65 C19.6038116,419.910275 25.0611152,435.704395 35.12,448.48 C13.78,453.26 0.18,460.48 0.18,468.59 C0.282381281,469.252736 0.282381281,469.927264 0.18,470.59 C0.18,484.99 43.18,496.67 96.31,496.67 C102.73,496.67 109,496.5 115.07,496.17 L175.07,544.73 L78.97,699.21 C78.97,699.21 47.27,723.75 71.81,731.94 C96.35,740.13 146.47,746.26 146.47,746.26 C146.47,746.26 154.65,731.94 143.4,725.81 C132.15,719.68 116.81,722.74 116.81,722.74 L118.81,710.47 C118.81,710.47 285.51,567.29 250.74,518.21 C244.09,508.82 237.44,499.13 230.74,489.59 L256.98,491.98 L262.98,716.74 L263.73,716.5 C262.23,720.92 251.63,754.24 275.13,748.6 C300.29,742.6 346.06,721.27 346.06,721.27 C346.06,721.27 345.43,704.77 332.64,705.51 Z M232.37,318.77 L183.28,304.52 L183.28,262.52 L236.63,319.11 C234.01,318.9 232.37,318.77 232.37,318.77 Z" id="Shape"></path>
            </g>
            <circle id="Oval" fill="#000000" cx="298.06" cy="100.02" r="72"></circle>
            <path d="M380.06,265.02 L435.01,323.35 C437.354989,325.843235 440.748752,327.068129 444.145522,326.647238 C447.542291,326.226346 450.534457,324.210177 452.2,321.22 L513.06,212.03 L496.06,206.03 L446.06,278.03 C446.06,278.03 352.19,180.19 339.06,185.03 C325.93,189.87 380.06,265.02 380.06,265.02 Z" id="Path" fill="#156553"></path>
            <path d="M275.06,467.02 L194.06,677.02" id="Path" stroke="#BDBDBD" stroke-width="5"></path>
            <path d="M315.06,467.02 L396.06,677.02" id="Path" stroke="#BDBDBD" stroke-width="5"></path>
            <ellipse id="Oval" fill="#B84733" cx="295.06" cy="468.52" rx="94" ry="25.5"></ellipse>
            <ellipse id="Oval" fill="#F55F44" cx="295.06" cy="466.52" rx="94" ry="25.5"></ellipse>
            <path d="M255.5,513.15 L344.19,540.48" id="Path" stroke="#BDBDBD" stroke-width="5"></path>
            <path d="M334.61,513.15 L245.92,540.48" id="Path" stroke="#BDBDBD" stroke-width="5"></path>
            <path d="M296.15,183 L324.06,183 C354.987946,183 380.06,208.072054 380.06,239 L380.06,387 L220.059997,387 L220.06,259.11 C220.054695,238.926212 228.068955,219.567285 242.339173,205.293316 C256.609391,191.019347 275.966212,182.999999 296.15,183 Z" id="Path" fill="#156553"></path>
            <path d="M220.06,387 L380.06,387 L380.06,474 L291.06,474 C251.847783,474 220.06,442.212217 220.06,403 L220.06,387 Z" id="Path" fill="#39447A"></path>
            <path d="M222.22,243.06 L320.06,336.06 L428.06,336.06 L428.06,322.06 L335.06,295.06 L255.51,196.82 C255.51,196.82 219.38,219.11 222.22,243.06 Z" id="Path" fill="#000000" opacity="0.05"></path>
            <path d="M222.22,241.06 L320.06,334.06 L428.06,334.06 L428.06,320.06 L335.06,293.06 L255.51,194.82 C255.51,194.82 219.38,217.11 222.22,241.06 Z" id="Path" fill="#156553"></path>
            <path d="M428.06,320.02 C428.06,320.02 480.06,324.02 466.06,334.02 L428.06,334.02 L428.06,320.02 Z" id="Path" fill="#A0684F"></path>
            <path d="M496.06,206.02 C496.06,206.02 509.06,167.02 518.06,178.02 C527.06,189.02 513.06,212.02 513.06,212.02 L496.06,206.02 Z" id="Path" fill="#A0684F"></path>
            <polygon id="Path" fill="#000000" opacity="0.05" points="220.06 387.02 220.06 391.68 380.06 392.02 380.06 387.02"></polygon>
            <path d="M344.52,479.56 L452.12,489.37 L457.98,709.11 L496.51,696.57 C496.51,696.57 554.14,447.57 499.19,426.57 C444.24,405.57 384.84,377.94 349.38,400.47 C313.92,423 344.52,479.56 344.52,479.56 Z" id="Path" fill="#39447A"></path>
            <path d="M351.06,412.02 C351.06,412.02 410.06,442.02 418.06,476.02" id="Path" fill="#000000" opacity="0.1"></path>
            <path d="M288.06,473.02 L372.06,541.02 L278.06,692.02 L317.06,703.02 C317.06,703.02 480.06,563.02 446.06,515.02 C412.06,467.02 378.06,411.02 336.06,410.02 C294.06,409.02 288.06,473.02 288.06,473.02 Z" id="Path" fill="#39447A"></path>
            <polygon id="Path" fill="#000000" opacity="0.05" points="420.06 252.02 441.06 288.02 446.06 278.02"></polygon>
            <path d="M278.06,692.02 C278.06,692.02 247.06,716.02 271.06,724.02 C295.06,732.02 344.06,738.02 344.06,738.02 C344.06,738.02 352.06,724.02 341.06,718.02 C330.06,712.02 315.06,715.02 315.06,715.02 L317.06,703.02 L278.06,692.02 Z" id="Path" fill="#333333"></path>
            <path d="M458.88,708.43 C458.88,708.43 445.26,746.19 469.88,740.29 C494.5,734.39 539.24,713.56 539.24,713.56 C539.24,713.56 538.63,697.45 526.12,698.17 C513.61,698.89 502.47,709.37 502.47,709.37 L497.08,696 L458.88,708.43 Z" id="Path" fill="#333333"></path>
            <rect id="Rectangle" fill="#A0684F" x="280.06" y="148.02" width="40" height="60" rx="20"></rect>
            <path d="M300.06,150.02 C289.014305,150.02 280.06,158.974305 280.06,170.02 L280.06,176.82 C293.050876,181.093685 307.069124,181.093685 320.06,176.82 L320.06,170.02 C320.06,164.71567 317.952863,159.628592 314.202136,155.877864 C310.451408,152.127137 305.36433,150.02 300.06,150.02 Z" id="Path" fill="#000000" opacity="0.05"></path>
            <circle id="Oval" fill="#A0684F" cx="300.06" cy="114.02" r="64"></circle>
            <path d="M236.06,111.11 C236.06,111.11 252.06,115.23 261.06,97.05 C270.06,78.87 277.06,68.95 314.06,79.69 C351.06,90.43 358.5,91.75 360.28,81.59 C361.5,74.65 348.34,57.78 339.88,47.8 C335.76,42.93 329.03,40.02 321.88,40.02 L280.06,40.02 L255.06,51.59 L236.06,68.12 L232.06,90.44 L236.06,111.11 Z" id="Path" fill="#000000" opacity="0.05"></path>
            <path d="M236.06,109.11 C236.06,109.11 252.06,113.23 261.06,95.05 C270.06,76.87 277.06,66.95 314.06,77.69 C351.06,88.43 358.5,89.75 360.28,79.59 C361.5,72.65 348.34,55.78 339.88,45.8 C335.76,40.93 329.03,38.02 321.88,38.02 L280.06,38.02 L255.06,49.59 L236.06,66.12 L232.06,88.44 L236.06,109.11 Z" id="Path" fill="#000000"></path>
            <ellipse id="Oval" fill="#A0684F" cx="242.56" cy="109.02" rx="6.5" ry="13"></ellipse>
            <path d="M237.91,75.57 C236.43,67.2 234.97,58.41 237.67,50.35 C240.35161,42.5665763 246.560964,36.5130126 254.41,34.03 C259.41,32.48 264.89,32.51 269.9,30.86 C276.95,28.54 282.48,23.15 288.61,18.95 C294.02478,15.2430799 299.996581,12.4242819 306.3,10.6 C311.96,8.96 318.63,8.33 323.25,12 C327.13,15.09 328.48,20.38 331.69,24.16 C335.43,28.56 341.23,30.47 346.3,33.24 C359.122084,40.424202 367.574524,53.4714171 368.89,68.11 C369.06,70.26 368.89,72.81 367.07,73.97 C365.944667,74.5443893 364.675967,74.7772741 363.42,74.64 C337.84,74.27 312.23,73.91 286.76,71.56 C278.84,70.83 270.91,69.91 262.96,70.21 C250.676099,70.6969424 238.682139,74.0860927 227.96,80.1" id="Path" fill="#000000"></path>
            <g id="Group" opacity="0.7" transform="translate(0.000000, 405.000000)" fill="url(#linearGradient-3)">
                <path d="M174,114.26 C177.374646,100.629794 172.02309,86.3271948 160.53,78.26 C157.53,76.26 154.25,74.73 151.53,72.42 C146.97,68.58 144.36,62.91 142.48,57.24 C137.96,43.66 136.53,28.43 128.6,16.16 C121.38,4.99 107.33,1.72 94.86,0.61 C90.32,0.2 85.55,-0.01 81.4,1.87 C74.45,5.01 71.14,13.22 70.83,20.87 C70.52,28.52 72.5,36.01 73,43.61 C73.5,51.21 72.14,59.61 66.52,64.75 C60.9,69.89 52.87,70.52 45.42,71.55 C35.6664216,72.9025268 26.0831629,75.2824196 16.83,78.65 C9.06,81.48 0.41,86.58 0.04,94.84 C-0.26,101.59 5.19,106.98 9.28,112.35 C16.93,122.35 20.75,135.64 18.16,147.99 C15.52,160.56 6.69,171.35 5.08,184.1 C4.67,187.34 4.79,190.78 6.36,193.64 C7.60658983,195.653421 9.24994659,197.392045 11.19,198.75 C15.99,202.46 21.35,205.44 25.89,209.46 C35.36,217.85 40.49,230.02 44.44,242.04 C44.82,243.2 45.16,244.37 45.52,245.53 L36.21,245.53 C17.2176326,245.584923 1.83492333,260.967633 1.78,279.96 C1.83492333,298.952367 17.2176326,314.335077 36.21,314.39 L129.21,314.39 C148.202367,314.335077 163.585077,298.952367 163.64,279.96 C163.617932,260.909134 148.170878,245.475504 129.12,245.47 L103.66,245.47 C109.66,237.4 115.98,229.82 125.28,226.71 C134.58,223.6 145.83,225.43 153.13,218.94 C156.69,215.78 158.58,211.1 159.45,206.42 C160.991223,197.94316 159.549546,189.194161 155.37,181.66 C152.44,176.43 148.16,171.66 147.23,165.76 C146.44,160.7 148.23,155.57 150.74,151.08 C157.77,138.29 170.21,128.36 174,114.26 Z" id="Path"></path>
            </g>
            <path d="M94.49,413.06 C90.17,412.67 85.63,412.47 81.67,414.26 C75.06,417.26 71.9,425.07 71.6,432.32 C71.3,439.57 73.19,446.73 73.66,453.98 C74.13,461.23 72.84,469.2 67.49,474.11 C62.14,479.02 54.49,479.6 47.4,480.58 C38.1103827,481.866985 28.9829436,484.132923 20.17,487.34 C12.77,490.03 4.53,494.9 4.17,502.76 C3.89,509.19 9.07,514.32 12.97,519.43 C20.26,529 23.89,541.61 21.42,553.37 C18.9,565.37 10.49,575.62 8.97,587.76 C8.58,590.84 8.69,594.12 10.19,596.84 C11.3766669,598.758901 12.9418274,600.41593 14.79,601.71 C19.36,605.24 24.46,608.08 28.79,611.91 C37.79,619.91 42.69,631.49 46.45,642.91 C50.1486584,654.171148 53.0458926,665.679884 55.12,677.35 C62.89,672.35 72.93,672.43 81.22,668.35 C98.87,659.7 104.81,634.62 123.45,628.35 C132.27,625.4 143.02,627.13 149.97,620.95 C153.36,617.95 155.16,613.49 155.97,609.03 C157.436887,600.977359 156.076845,592.665205 152.12,585.5 C149.33,580.5 145.25,576 144.36,570.36 C143.6,565.54 145.36,560.66 147.7,556.36 C154.4,544.18 166.25,534.73 169.86,521.3 C173.09239,508.30755 167.992653,494.665853 157.03,486.98 C154.2,485.07 151.03,483.62 148.43,481.42 C144.08,477.76 141.61,472.36 139.81,466.97 C135.5,454.04 134.14,439.53 126.59,427.85 C119.74,417.23 106.36,414.11 94.49,413.06 Z" id="Path" fill="#4DB6AC"></path>
            <path d="M94.36,413.5 C94.36,413.5 110.76,633.11 68.12,670.86" id="Path" stroke="#535461" opacity="0.6"></path>
            <rect id="Rectangle" fill="#156553" x="5.85" y="646.27" width="154.09" height="65.57" rx="32.78"></rect>
            <path d="M4.21,498.74 C4.21,498.74 46.12,493.85 97.29,524.98" id="Path" stroke="#535461" opacity="0.6"></path>
            <path d="M96.47,551.19 C96.47,551.19 119.76,512.67 169.76,505.3" id="Path" stroke="#535461" opacity="0.6"></path>
            <path d="M8.31,588.11 C8.31,588.11 66.4,578.26 93.09,594.66" id="Path" stroke="#535461" opacity="0.6"></path>
            <path d="M89.78,617.16 C89.78,617.16 120.19,603.36 154.4,614.57" id="Path" stroke="#535461" opacity="0.6"></path>
            <path d="M581.72,412.19 C582.548427,412.19 583.22,411.518427 583.22,410.69 C583.22,409.861573 582.548427,409.19 581.72,409.19 C580.891573,409.19 580.22,409.861573 580.22,410.69 C580.22,411.518427 580.891573,412.19 581.72,412.19 Z" id="Path" fill="url(#linearGradient-4)"></path>
            <path d="M801.82,345.02 L905.82,715.11" id="Path" stroke="#E0E0E0" stroke-width="8"></path>
            <rect id="Rectangle" fill="#E0E0E0" x="344.63" y="334.18" width="561.61" height="21.88"></rect>
            <rect id="Rectangle" fill="#535461" x="483.06" y="329.02" width="92" height="13" rx="6.5"></rect>
            <g id="Group" opacity="0.7" transform="translate(539.000000, 184.000000)" fill="url(#linearGradient-4)">
                <rect id="Rectangle" x="0.06" y="0.08" width="228.66" height="158.1" rx="28.22"></rect>
            </g>
            <rect id="Rectangle" fill="#3E3F49" x="543.13" y="186.99" width="216.61" height="155.18" rx="26.84"></rect>
            <rect id="Rectangle" fill="#535461" x="546.13" y="186.99" width="216.61" height="155.18" rx="26.84"></rect>
            <circle id="Oval" fill="#E0E0E0" cx="664.56" cy="263.52" r="7"></circle>
        </g>
    </g>
</svg>